<svg width="216" height="34" xmlns="http://www.w3.org/2000/svg"><g fill-rule="nonzero" fill="#292929" opacity=".93"><path d="M39.22.402l3.366-.118c.198.44.582 1.307.78 1.746-1.386 4.263-4.19 7.906-8.027 10.502 8.033-.18 15.471 2.864 22.256 6.588 2.222-2.479 4.106-5.381 7.049-7.186 2.279-1.437 5.096-.988 7.655-.875-.589 2.199-.694 4.715-2.404 6.477-2.15 2.374-5.576 2.94-8.549 3.864 3.069.876 6.137 1.761 9.244 2.514l1.416-.657c-.47.37-1.422 1.103-1.892 1.464-3.204.466-6.22-1.08-9.033-2.299-5.092-2.567-10.113-5.28-15.457-7.382 3.222 2.815 6.157 6.644 4.484 10.997-6.056-.67-7.995-6.72-8.573-11.584-3.847-.433-7.736-.51-11.584-.04a3.874 3.874 0 0 1-.42-1.567c2.537-1.152 2.6-3.97 3.663-6.084 1.03-2.792 3.438-4.841 6.025-6.36zM32.448 12.47c4.99-1.907 8.664-6.401 9.434-11.423-5.894.915-7.998 6.733-9.434 11.423zm26.376 7.437c3.782-.213 8.18-.59 10.603-3.754.891-1.227 2.232-4.04-.578-3.971-4.66.588-7.534 4.366-10.025 7.725zm-16.064-4.454c.644 3.665 2.106 7.727 6.015 9.323 1.692-4.415-2.46-7.441-6.015-9.323z"/><path d="M103.66 4.71c2.42-2.29 5.17.35 6.47 2.47 1.47-1.6 3.61-3.83 5.95-2.33 1.51 1.95.23 4.43-.1 6.57 2.73.04 5.84 1.32 5.67 4.54.54 3.28-3.44 2.95-5.54 3.03.77 1.37 1.54 2.74 2.29 4.13 2.67.96 5.52 2.86 8.44 1.92 2.24-2.56 3.56-6 6.51-7.89 1.17-.76 2.24-.65 3.22.35.13 3.92-3.85 6.1-6.27 8.51 6.08-1.05 12.14-2.37 17.87-4.67 1.15-.5 2.59-1.04 2.74-2.49 1.28-4.72 2.41-10.33 7.39-12.54 1.09 4.73-.38 9.62-4.02 12.87 8.54-3.02 17.62-4.68 26.69-4.45 4.1.06 8.02 1.44 12.07 1.88 2.36-1.43 3.3-4.32 5.45-6.02 1.81-1.17 4.1-.7 6.13-.76-.91 4.21-4.63 6.62-8.24 8.34 6.47 1.62 13.04 2.75 19.62 3.81V23c-13.32-.35-25.62-6.79-38.94-7.21 2.16 2.11 6.06 4.44 4.89 8.08-2.7.84-5.56-.3-7.41-2.32-2.11-1.86-4.01-5.1-7.29-4.42-8.58 1.65-17.07 4.1-25.05 7.7 2.58 1.29 5.73 1.91 7.72 4.15 1.24 1.41.69 3.35.55 5.02h-3.15c-3.26-1.99-5.3-5.26-7.1-8.51-7.38 1.78-15.55 2.37-22.35-1.65-1.2 1.11-2.3 2.42-3.82 3.11-1.76-.51-2.86-2.05-4.1-3.27-1.54 1.57-3.31 4.02-5.86 3.03-2.42-.79-1.77-3.79-1.92-5.75-8.2 4.59-17.93 4.71-27.06 4.14 2.64 1.63 5.21 4 4.29 7.44-4.61-.19-8.43-3.34-10.14-7.52.18-.51.37-1.02.57-1.52 3.82.42 7.66.56 11.5.49 1.81-3.68 3.89-8.39 8.49-9.01 3 3.1-1.93 7.03-3.86 9.26 5.07-.69 10.06-1.88 14.9-3.58-1.63-1.12-4.63-1.98-3.81-4.59.59-3.15 4.24-3.32 6.76-3.7-1.02-2.37-2.77-5.63-.15-7.66zm1.49.42c-3.81 2.16-.35 7.28 2.3 9.01 1.98-.37 1.4-2.79 1.53-4.25.15-2.19-.92-5.83-3.83-4.76zm8 .77c-2.17 1.82-4 5.74-2.26 8.3 2.02-1.19 4.08-2.8 4.52-5.26.97-1.67.03-5.12-2.26-3.04zm38.56 13.57c4.03-2.39 6.3-6.8 5.81-11.49-3.17 3.05-4.97 7.22-5.81 11.49zm43.38-2.46c3.39-1.05 6.4-3.09 8.23-6.17-4.19-.68-6.42 3.11-8.23 6.17zm-83.52-.98c2.37.9 4.78 2.12 7.4 1.9 2.52-.75 1.33-4.84-.98-4.94-2.68-.69-4.75 1.28-6.42 3.04zm-11.17-1.71c-1.37.79-1.31 2.51-1.77 3.83 3.37.65 6.66-.4 9.18-2.68-2.18-1.2-5.04-2.96-7.41-1.15zm-17.72 9.59c3.61-1.07 6.26-3.84 7.7-7.23-4.38-.86-6 4.28-7.7 7.23zm98.11-.67c-.19-4.75-4.96-6.69-9.07-6.7 2.02 3.36 5.13 5.99 9.07 6.7zm-77.04-1.11c-1.2 1.44.11 4.23 2.06 3.79 2.93-1.52 3.52-5.02 4.4-7.88-3.18-1.35-5.02 1.88-6.46 4.09zm7.5-4.84c.22 2.15-.47 4.62.81 6.53 1.58 1.22 3.8.43 4.82-1.1-.05-2.95-3.69-3.9-5.63-5.43zm17.32 7.75c3.27-1.49 6.18-3.95 7.18-7.52-3.57 1.11-5.49 4.45-7.18 7.52zm-58.44.42c2.16 2.6 5 5.91 8.8 4.96-1.72-3.32-5.59-3.9-8.8-4.96zm71.6 1.01c1.98 2.85 4.76 4.99 7.89 6.46.31-4.36-4.4-5.95-7.89-6.46zM5.06 24.33c1.21-5.43 3.69-11.12 8.88-13.81.82 4.84-1.1 9.36-3.72 13.3 7.04-3.4 12.47-10.87 20.78-10.96l1.57 1.77-1.02-1.08c-3.02.97-5.98 2.1-8.88 3.4 3.23.75 6.94.79 9.56 3.1.26 1.5-.63 3.02-2.2 3.25-3.91.58-7.04-2.25-9.67-4.71-4.27 3.12-8.7 7.17-14.37 6.85-2.25.08-4.27-1-5.99-2.33v-1.77c1.64 1.07 3.35 2.04 5.06 2.99zm1.57.03c4.48-2.17 5.98-7.23 6.37-11.84-3.47 3.01-6.08 7.17-6.37 11.84zm15.08-6.03c2.46 2.39 6.59 5.64 9.85 2.65-2.84-2.14-6.39-2.62-9.85-2.65z"/></g></svg>